<?xml version="1.0" standalone="no"?>
<!DOCTYPE svg PUBLIC "-//W3C//DTD SVG 20010904//EN"
 "http://www.w3.org/TR/2001/REC-SVG-20010904/DTD/svg10.dtd">
<svg version="1.0" xmlns="http://www.w3.org/2000/svg"
 width="225.000000pt" height="225.000000pt" viewBox="0 0 225.000000 225.000000"
 preserveAspectRatio="xMidYMid meet">
<metadata>
Created by potrace 1.14, written by Peter Selinger 2001-2017
</metadata>
<g transform="translate(0.000000,225.000000) scale(0.100000,-0.100000)"
fill="#000000" stroke="none">
<path d="M948 2095 c-487 -92 -828 -523 -805 -1015 21 -439 310 -793 745 -912
111 -31 363 -31 474 0 183 50 332 135 458 262 127 126 212 275 262 458 31 111
31 363 0 474 -100 364 -361 625 -720 719 -102 27 -308 34 -414 14z m253 -135
c173 -32 311 -175 338 -350 28 -179 -70 -365 -234 -441 -49 -24 -87 -33 -165
-40 -55 -5 -122 -16 -148 -25 -149 -50 -258 -179 -284 -340 -33 -195 97 -400
292 -465 17 -6 11 -7 -20 -3 -66 9 -186 50 -260 91 -200 109 -352 305 -411
528 -25 96 -30 287 -10 380 72 327 343 598 656 654 129 23 171 25 246 11z m7
-1065 c77 -33 123 -104 123 -190 0 -66 -21 -114 -71 -158 -82 -75 -210 -69
-284 13 -46 51 -57 81 -57 146 0 57 24 115 63 151 55 51 153 68 226 38z"/>
<path d="M1068 1751 c-77 -25 -137 -91 -153 -169 -16 -79 42 -189 119 -226 44
-21 138 -21 182 0 77 37 135 147 119 226 -12 57 -53 116 -99 143 -48 28 -125
40 -168 26z"/>
</g>
</svg>
